<svg xmlns="http://www.w3.org/2000/svg" viewBox="0 0 108.48 108.47"><defs><style>.cls-1{fill:#ebeded;}.cls-2{fill:#bdc3c7;}.cls-3{fill:#3b97d3;}.cls-4{fill:#35495e;}.cls-5{fill:#fff;}.cls-6{fill:#e64c3c;}.cls-7{fill:#7f8c8d;}.cls-8{fill:#95a5a5;}.cls-9{fill:#c03b2c;}.cls-10{fill:#2c3e50;}.cls-11{fill:#2880ba;}</style></defs><title>calculator</title><g id="Layer_2" data-name="Layer 2"><g id="Layer_1-2" data-name="Layer 1"><g id="calculator"><path id="Path_121" data-name="Path 121" class="cls-1" d="M4.34,0h99.8a4.34,4.34,0,0,1,4.34,4.34v96.54a4.34,4.34,0,0,1-4.34,4.34H4.34A4.34,4.34,0,0,1,0,100.88V4.34A4.34,4.34,0,0,1,4.34,0Z"/><path id="Path_122" data-name="Path 122" class="cls-2" d="M13,7.59H95.46a4.35,4.35,0,0,1,4.34,4.34V28.2a4.34,4.34,0,0,1-4.34,4.34H13A4.34,4.34,0,0,1,8.68,28.2V11.93A4.34,4.34,0,0,1,13,7.59Z"/><path id="Path_123" data-name="Path 123" class="cls-3" d="M13,38H31.46a4.34,4.34,0,0,1,4.34,4.34V58.58a4.35,4.35,0,0,1-4.34,4.34H13a4.34,4.34,0,0,1-4.34-4.34V42.31A4.34,4.34,0,0,1,13,38Zm32.54,0H64a4.34,4.34,0,0,1,4.34,4.34V58.58A4.34,4.34,0,0,1,64,62.92H45.56a4.34,4.34,0,0,1-4.34-4.34h0V42.31A4.34,4.34,0,0,1,45.56,38ZM13,70.51H31.46a4.34,4.34,0,0,1,4.34,4.34V91.12a4.35,4.35,0,0,1-4.34,4.34H13a4.34,4.34,0,0,1-4.34-4.34V74.85A4.34,4.34,0,0,1,13,70.51Zm32.54,0H64a4.34,4.34,0,0,1,4.34,4.34V91.12A4.34,4.34,0,0,1,64,95.46H45.56a4.34,4.34,0,0,1-4.34-4.34V74.85A4.34,4.34,0,0,1,45.56,70.51Z"/><path id="Path_124" data-name="Path 124" class="cls-4" d="M78.1,70.51H95.46a4.34,4.34,0,0,1,4.34,4.34V91.12a4.35,4.35,0,0,1-4.34,4.34H78.1a4.35,4.35,0,0,1-4.34-4.34V74.85A4.34,4.34,0,0,1,78.1,70.51Z"/><path id="Path_125" data-name="Path 125" class="cls-5" d="M91.66,84.61H81.9a1.63,1.63,0,1,0,0,3.25h9.77a1.63,1.63,0,1,0,0-3.25ZM81.9,81.36h9.76a1.63,1.63,0,0,0,0-3.26H81.9a1.63,1.63,0,0,0,0,3.26Z"/><path id="Path_126" data-name="Path 126" class="cls-6" d="M78.1,38H95.46a4.34,4.34,0,0,1,4.34,4.34V58.58a4.36,4.36,0,0,1-4.34,4.34H78.1a4.35,4.35,0,0,1-4.34-4.34V42.31A4.34,4.34,0,0,1,78.1,38Z"/><path id="Path_127" data-name="Path 127" class="cls-5" d="M81.35,50.44c0-3.29,3-6,6.73-6H89.7c.78,0,1.42,1,1.42,1.67a1.58,1.58,0,0,1-1.42,1.53H88.08c-2.14,0-3.48.87-3.48,2.77s1.34,2.7,3.48,2.7H89.7a1.73,1.73,0,0,1,1.49,1.6,1.8,1.8,0,0,1-1.49,1.67H88.08c-3.71,0-6.73-2.68-6.73-6ZM27.66,48.81h-3.8V45a1.63,1.63,0,0,0-3.25,0v3.8h-3.8a1.63,1.63,0,1,0,0,3.26h3.8v3.8a1.63,1.63,0,1,0,3.25,0h0v-3.8h3.8a1.63,1.63,0,1,0,0-3.26Zm0,32.55H16.81a1.63,1.63,0,1,0,0,3.25H27.66a1.63,1.63,0,1,0,0-3.25Zm32.54,0H49.35a1.63,1.63,0,0,0,0,3.25H60.2a1.63,1.63,0,0,0,0-3.25Zm-5.42-2.17a1.63,1.63,0,1,0-1.63-1.63h0A1.63,1.63,0,0,0,54.78,79.19Zm0,7.59a1.63,1.63,0,1,0,1.63,1.63h0A1.63,1.63,0,0,0,54.78,86.78Zm5.44-33.4-2.95-3,2.92-2.93h0A1.77,1.77,0,1,0,57.69,45l-2.93,2.93L51.83,45a1.77,1.77,0,0,0-2.5,2.51h0l2.92,2.92-2.92,2.93h0a1.77,1.77,0,0,0,2.51,2.5l2.92-2.92,3,3h0a1.77,1.77,0,0,0,2.5-2.5Z"/><path id="Path_128" data-name="Path 128" class="cls-7" d="M92.2,21.69V26l1.7,1.09L95.46,26V21.69L93.9,20.61ZM93.9,13,92.2,14.1v4.34l1.7,1.09,1.56-1.09V14.1Zm-8.2,8.67-1.56-1.08-1.7,1.08V26l1.7,1.09L85.69,26Zm0-3.25V14.1L84.14,13l-1.7,1.08v4.34l1.7,1.09Zm5.42-4.34,2.17-1.56-2.17-1.69H86.78l-2.17,1.69,2.17,1.56ZM86.78,26l-2.17,1.7,2.17,1.56h4.34l2.17-1.56L91.12,26Z"/><path id="Path_129" data-name="Path 129" class="cls-8" d="M95.46,7.59H13a4.34,4.34,0,0,0-4.34,4.34V14.1A4.34,4.34,0,0,1,13,9.76H95.46A4.34,4.34,0,0,1,99.8,14.1V11.93A4.35,4.35,0,0,0,95.46,7.59Z"/><path id="Path_130" data-name="Path 130" class="cls-9" d="M95.46,62.92H78.1a4.35,4.35,0,0,1-4.34-4.34v2.16a4.34,4.34,0,0,0,4.34,4.34H95.46a4.34,4.34,0,0,0,4.34-4.34V58.58A4.36,4.36,0,0,1,95.46,62.92Z"/><path id="Path_131" data-name="Path 131" class="cls-10" d="M95.46,95.46H78.1a4.35,4.35,0,0,1-4.34-4.34v2.17a4.35,4.35,0,0,0,4.34,4.34H95.46a4.35,4.35,0,0,0,4.34-4.34V91.12A4.35,4.35,0,0,1,95.46,95.46Z"/><path id="Path_132" data-name="Path 132" class="cls-11" d="M64,62.92H45.56a4.34,4.34,0,0,1-4.34-4.34h0v2.16a4.34,4.34,0,0,0,4.34,4.34H64a4.34,4.34,0,0,0,4.34-4.34V58.58A4.35,4.35,0,0,1,64,62.92Zm0,32.54H45.56a4.34,4.34,0,0,1-4.34-4.34v2.17a4.34,4.34,0,0,0,4.34,4.34H64a4.34,4.34,0,0,0,4.34-4.34V91.12A4.34,4.34,0,0,1,64,95.46Zm-32.54,0H13a4.34,4.34,0,0,1-4.34-4.34v2.17A4.34,4.34,0,0,0,13,97.63H31.46a4.35,4.35,0,0,0,4.34-4.34V91.12A4.35,4.35,0,0,1,31.46,95.46Zm0-32.55H13a4.33,4.33,0,0,1-4.34-4.33v2.16A4.34,4.34,0,0,0,13,65.08H31.46a4.34,4.34,0,0,0,4.34-4.34V58.58A4.33,4.33,0,0,1,31.46,62.91Z"/><path id="Path_133" data-name="Path 133" class="cls-2" d="M104.14,105.22H4.34A4.34,4.34,0,0,1,0,100.88v3.25a4.34,4.34,0,0,0,4.34,4.34h99.8a4.34,4.34,0,0,0,4.34-4.34v-3.25a4.34,4.34,0,0,1-4.34,4.34Z"/></g></g></g></svg>