<svg xmlns="http://www.w3.org/2000/svg" viewBox="0 0 100 100"><defs><style>.cls-1{fill:#ebeded;}.cls-2{fill:#d4d7da;}.cls-3{fill:#e54d3b;}.cls-4{fill:#c03b2b;}</style></defs><title>blank-calendar</title><g id="Layer_2" data-name="Layer 2"><g id="Layer_1-2" data-name="Layer 1"><g id="calendar"><path id="Path_134" data-name="Path 134" class="cls-1" d="M100,95a5,5,0,0,1-5,5H5a5,5,0,0,1-5-5V5A5,5,0,0,1,5,0H95a5,5,0,0,1,5,5Z"/><path id="Path_135" data-name="Path 135" class="cls-2" d="M95,97H5a5,5,0,0,1-5-5v3a5,5,0,0,0,5,5H95a5,5,0,0,0,5-5V92A5,5,0,0,1,95,97Z"/><path id="Path_136" data-name="Path 136" class="cls-3" d="M0,31V5A5,5,0,0,1,5,0H95a5,5,0,0,1,5,5V31Z"/><path id="Path_137" data-name="Path 137" class="cls-4" d="M0,28H100v2.75H0Z"/></g></g></g></svg>