<svg xmlns="http://www.w3.org/2000/svg" viewBox="0 0 100 100"><defs><style>.cls-1{fill:#c03b2b;}.cls-1,.cls-2{fill-rule:evenodd;}.cls-2{fill:#e64c3c;}.cls-3{fill:#fff;}</style></defs><title>chat</title><g id="Layer_2" data-name="Layer 2"><g id="Layer_1-2" data-name="Layer 1"><g id="chat"><path id="Path_184" data-name="Path 184" class="cls-1" d="M100,58a6,6,0,0,1-6,6H21a6,6,0,0,1-6-6h0V6a6,6,0,0,1,6-6H94a6,6,0,0,1,6,6Z"/><path id="Path_185" data-name="Path 185" class="cls-2" d="M85,73a6.1,6.1,0,0,1-6,6H66a1.91,1.91,0,0,0-2,1.82V99c0,.74-.25,1-.92,1-.23,0-.47-.15-.86-.46L38.25,81a12.3,12.3,0,0,0-6.13-2H5.9A5.86,5.86,0,0,1,0,73.16H0V22a6.22,6.22,0,0,1,6-6H79a5.9,5.9,0,0,1,6,5.8V73Z"/><path id="Path_186" data-name="Path 186" class="cls-3" d="M58.5,40.07a13.37,13.37,0,0,1-3.77,1,6.61,6.61,0,0,0,2.89-3.64,13.07,13.07,0,0,1-4.17,1.6,6.57,6.57,0,0,0-11.19,6A18.65,18.65,0,0,1,28.73,38.2a6.57,6.57,0,0,0,2,8.76,6.46,6.46,0,0,1-3-.82v.09a6.56,6.56,0,0,0,5.26,6.43,6.72,6.72,0,0,1-3,.12,6.56,6.56,0,0,0,6.13,4.55,13.17,13.17,0,0,1-9.72,2.72,18.61,18.61,0,0,0,10.06,3c12.08,0,18.68-10,18.68-18.68,0-.28,0-.57,0-.85a13.25,13.25,0,0,0,3.28-3.4Z"/></g></g></g></svg>