<svg xmlns="http://www.w3.org/2000/svg" viewBox="0 0 100 100"><defs><style>.cls-1,.cls-6{fill:#24ae5f;}.cls-2{fill:#fff;}.cls-2,.cls-3,.cls-4,.cls-5,.cls-6{fill-rule:evenodd;}.cls-3{fill:#bdc3c7;}.cls-4{fill:#a1a5a8;}.cls-5{opacity:0.15;isolation:isolate;}</style></defs><title>clipboard</title><g id="Layer_2" data-name="Layer 2"><g id="Layer_1-2" data-name="Layer 1"><g id="clipboard"><path id="Path_187" data-name="Path 187" class="cls-1" d="M100,94a6,6,0,0,1-6,6H6a6,6,0,0,1-6-6V16a6,6,0,0,1,6-6H94a6,6,0,0,1,6,6Z"/><path id="Path_188" data-name="Path 188" class="cls-2" d="M82,87a2,2,0,0,1-2,2H20a2,2,0,0,1-2-2V18a2,2,0,0,1,2-2H80a2,2,0,0,1,2,2Z"/><path id="Path_189" data-name="Path 189" class="cls-3" d="M72,20H28a3,3,0,0,1-3-3V10a3,3,0,0,1,3-3H43A7,7,0,0,1,57,7H72a3,3,0,0,1,3,3v7A3,3,0,0,1,72,20ZM50,4a3,3,0,1,0,3,3A3,3,0,0,0,50,4Z"/><path id="Path_190" data-name="Path 190" class="cls-4" d="M72,20H28a3,3,0,0,1-3-3V15a3,3,0,0,0,3,3H72a3,3,0,0,0,3-3v2A3,3,0,0,1,72,20Z"/><path id="Path_191" data-name="Path 191" class="cls-5" d="M94,97H6a6,6,0,0,1-6-6v3a6,6,0,0,0,6,6H94a6,6,0,0,0,6-6V91A6,6,0,0,1,94,97Z"/><path id="Path_192" data-name="Path 192" class="cls-3" d="M41,41v3H72V41Zm0,14H72V52H41Zm0,11H72V63H41Zm0,11H72V74H41ZM28,46h7V39H28Zm0,11h7V50H28Zm0,11h7V61H28Zm0,11h7V72H28Z"/><path id="Path_193" data-name="Path 193" class="cls-6" d="M41,29v3H72V29Zm-5.07-1.21-.71-.72a.26.26,0,0,0-.35,0h0l-3.73,3.7a.25.25,0,0,1-.35,0h0l-1.63-1.66a.26.26,0,0,0-.35,0h0l-.73.65a.29.29,0,0,0-.07.18v0h0v1h0l.06.13,1.65,1.72.35.36.71.71a.25.25,0,0,0,.36,0h0l4.79-4.77L36,29h0V28h0a.22.22,0,0,0-.06-.21Z"/><path id="Path_194" data-name="Path 194" class="cls-4" d="M50,4a3,3,0,0,1,2.82,2A3.1,3.1,0,0,0,53,5a3,3,0,0,0-6,0,3.1,3.1,0,0,0,.18,1A3,3,0,0,1,50,4Z"/></g></g></g></svg>