<svg xmlns="http://www.w3.org/2000/svg" viewBox="0 0 111.99 110.8"><defs><style>.cls-1{fill:#818181;}.cls-2{fill:#7d7d7d;}.cls-12,.cls-2,.cls-3,.cls-5,.cls-6,.cls-9{fill-rule:evenodd;}.cls-3{fill:#a0a0a0;}.cls-4{fill:#bebebe;}.cls-5{opacity:0.05;}.cls-5,.cls-9{isolation:isolate;}.cls-6{fill:#797979;}.cls-7{fill:#fff;}.cls-8{fill:#efefef;}.cls-9{opacity:0.15;}.cls-10{fill:#454545;}.cls-11{fill:#626262;}.cls-12{fill:#606060;}</style></defs><title>compass_gray</title><g id="Layer_2" data-name="Layer 2"><g id="Layer_1-2" data-name="Layer 1"><circle class="cls-1" cx="50" cy="60.8" r="50"/><path class="cls-2" d="M15.5,97a50,50,0,1,1,71-70.4Z"/><path class="cls-3" d="M84.5,24.6a50,50,0,0,1,1.1,71.3c-14.1-14.1-9.1-9.2-36.4-36.3Z"/><path class="cls-4" d="M88.1,93.2,55.5,60.6,87.9,28.2a49.11,49.11,0,0,0-5.1-5.1L12.3,93.7a61.36,61.36,0,0,0,5.1,5.1L49.8,66.4,82.4,99C84.4,97.1,86.3,95.2,88.1,93.2Z"/><path class="cls-5" d="M104.3,36.1A19.57,19.57,0,0,1,80.4,39l-4.2,4.2a35.14,35.14,0,1,1-7-7.1l4.2-4.2A19.49,19.49,0,0,1,104.2,8.6,19.34,19.34,0,0,1,104.3,36.1Zm-3.6-24a14.5,14.5,0,1,0,0,20.5A14.43,14.43,0,0,0,100.7,12.1Z"/><path class="cls-6" d="M106.3,33.2a19.57,19.57,0,0,1-23.9,2.9l-4.2,4.2a35.14,35.14,0,1,1-7-7.1L75.4,29A19.49,19.49,0,0,1,106.2,5.7,19.34,19.34,0,0,1,106.3,33.2ZM102.7,9.1A14.5,14.5,0,0,0,82.2,29.6,14.5,14.5,0,0,0,102.7,9.1Z"/><circle class="cls-7" cx="50" cy="60.8" r="27"/><circle class="cls-8" cx="50.5" cy="43.6" r="2.5"/><circle class="cls-8" cx="50.5" cy="78.6" r="2.5"/><circle class="cls-8" cx="32.5" cy="60.6" r="2.5"/><circle class="cls-8" cx="68.5" cy="60.6" r="2.5"/><path class="cls-9" d="M50,33.8a27.33,27.33,0,0,0-20.1,8.9A27.05,27.05,0,0,1,68.1,80.9,27,27,0,0,0,50,33.8Z"/><path class="cls-10" d="M65.1,44.3,53.3,64.5l-20,11.7Z"/><path class="cls-11" d="M33.3,76.2,45.1,56l20-11.7Z"/><path class="cls-12" d="M78.8,24.4l8,8c2,2,1.4,4.3-.4,6s-4.1,2.3-6,.4l-8-8c-2-2-1.4-4.3.4-6S76.9,22.4,78.8,24.4Z"/></g></g></svg>