<svg xmlns="http://www.w3.org/2000/svg" xmlns:xlink="http://www.w3.org/1999/xlink" viewBox="0 0 100 100"><defs><style>.cls-1{fill:none;}.cls-2{fill:#4a245a;}.cls-3{clip-path:url(#clip-path);}.cls-4{fill:#fff;fill-rule:evenodd;}</style><clipPath id="clip-path"><circle class="cls-1" cx="50" cy="50" r="50"/></clipPath></defs><title>Grade</title><g id="Layer_2" data-name="Layer 2"><g id="Layer_1-2" data-name="Layer 1"><g id="Grade"><circle id="Ellipse_54" data-name="Ellipse 54" class="cls-2" cx="50" cy="50" r="50"/><g class="cls-3"><g id="Group_14" data-name="Group 14"><path id="Path_368" data-name="Path 368" class="cls-4" d="M52.4,30.53a19.85,19.85,0,0,1,6.36.85q2.9,1.21,2.89,5,0,3.43-2.19,4.78a10.74,10.74,0,0,1-5.69,1.35H40.69v-12Zm2.07,22a13.89,13.89,0,0,1,5.6,1q3.57,1.63,3.57,6,0,5.18-3.68,7a13.1,13.1,0,0,1-5.67,1H40.69v-15H54.47Zm1.8-31H29.73v55H54.48a38.68,38.68,0,0,0,7.74-.75,15.09,15.09,0,0,0,10.07-7.09,16,16,0,0,0,2.44-8.76,14.56,14.56,0,0,0-2.13-8.06A12.29,12.29,0,0,0,66.27,47a13,13,0,0,0,4.18-3.13A12.24,12.24,0,0,0,73,35.78a14,14,0,0,0-2.51-8.39q-4.18-5.72-14.2-5.86Z"/></g></g></g></g></g></svg>