<svg xmlns="http://www.w3.org/2000/svg" viewBox="0 0 212.91 678.35"><defs><style>.cls-1{fill:#f29f1a;}.cls-2{fill:#7bcd9e;}.cls-3{fill:#85d1a5;}.cls-4{fill:#4ebc7c;}.cls-5{fill:#bae5cd;}.cls-6{fill:#94d6b0;}.cls-7{fill:#aadec0;}.cls-8{fill:#91d4ac;}.cls-9{fill:#4bbb79;}.cls-10{fill:#67c690;}.cls-11{fill:#b0ddc1;}.cls-12{fill:#2caf63;}.cls-13{fill:#55be81;}.cls-14{fill:#e57e22;}.cls-15{fill:#e48937;}.cls-16{fill:#e78834;}.cls-17{fill:#b1e1c5;}.cls-18{fill:#c2e7d1;}</style></defs><title>liberty</title><g id="Layer_2" data-name="Layer 2"><g id="Layer_1-2" data-name="Layer 1"><path class="cls-1" d="M36.94,0C35.69,6.45,38,11.91,41.28,17.31c4.37,7.28,3.43,11.4-3.21,16.61l-11,.09c-7.48-5.92-8-12.58-1.58-21.16l1.07,1.81c-.32-6.85,4-10.78,8.39-14.66Z"/><path class="cls-2" d="M25,539.06c8.69-9.3,14.12-20.53,19-32.08,1.11-2.63,2.72-5.63-1.27-7.54,3.15-7.93,3-16.13,2-24.42-1.36-11.56-1.9-23.1.37-34.67.64-3.3.12-6.83.15-10.25,0-1.32-.25-2.78.21-4,3.43-8.88,2.38-18,1.41-27.06-1.42-13.34-1-26.91-5.45-39.88-2.11-6.08.19-11.86,3.18-17.17,3.36-6,3.48-12.29,2.94-19.13-1.5,0-2.8.09-4.09,0-6-.51-9.35-3.57-8.23-9.47,1.39-7.24,4-14.3,6.52-21.27a51,51,0,0,1,5.64-10.54c4-6.09,3.32-11.91-.21-17.8-2.13-3.57-4.24-7.15-6.44-10.68-1.72-2.77-2.38-5.25.07-8.19.7-.83.19-3.9-.77-4.67-2.39-1.92-2.18-3.63-1.18-6.07,3.22-7.9,2.55-9.52-4.6-14.27-1.32-.88-2.09-2.59-3.11-3.92,3.92-1.49,8.2-2.42,11.68-4.6,4.07-2.55,7.46-6.19,11.14-9.35,1.3,8.64,6.9,14.88,12,21.43,1.8,2.33,4.56,4.77,4.78,7.34,1,12.45,2.67,24.84-.11,37.47-2,8.81-2.2,18.08-2.43,27.16C68,299,69.82,302.65,71.27,306c1.14,2.67,3.61,4.8,4.56,7.5a174.84,174.84,0,0,1,5.08,17.68c1.8,7.67,3.22,15.43,5.13,24.7L106,318.53a3,3,0,0,1,.47,2.51c-3,14.41-10.24,26.93-17.43,39.49a11.76,11.76,0,0,0-1.68,6c.28,5.6,1,11.19,1.65,16.78.37,3.13,1,6.25,1.53,9.93l5.63-6.79a11.63,11.63,0,0,1,.21,5.87c-2.11,12.05-5.66,24-6.08,36.15a207.32,207.32,0,0,1-16.59,73.85C68.4,514.8,61.87,526.78,55.91,539c-9.59.62-19.18,1.29-28.77,1.79C26.45,540.83,25.69,539.66,25,539.06Z"/><path class="cls-3" d="M38.71,72.91c.8,1.22,1.37,2.71,2.44,3.63A12.59,12.59,0,0,1,45.73,89c-1.91,11.37.18,22.26,2.82,33.36C51.49,134.68,52.9,147.4,55,160c.39,2.78.83,5.55,1.15,8.34.27,2.27,1.42,5.25.42,6.72-4.91,7.21-10.41,14-15.7,21-1-3.11-1.84-6.27-3-9.32a53.84,53.84,0,0,0-2.88-5.6c-.06-3.7-.11-7.41-.17-11.11-1.75-12.91-3.72-25.79-5.15-38.73-.67-6-.29-12.22-.39-18.33,6.29,2.09,9.54-.16,9.64-6.76.07-4.64-.31-9.32.1-13.93.5-5.65-.54-10.47-5.18-14.09.7-1.71,1.41-3.41,2.11-5.11Z"/><path class="cls-4" d="M38.71,72.91,35.94,73l-9.19-2.16A12.39,12.39,0,0,0,25,67.94a55.48,55.48,0,0,0-4.58-3.61l4.28-5.23c-.09-2.46-2.29-2.94-5.33-3.05-2.22-.08-6.08-.83-6.3-1.89-.74-3.56-.37-7.41.07-11.09.08-.7,2.35-1.53,3.67-1.63,3.09-.24,6.22-.08,9.57-.08.24-2.8.44-5.08.64-7.35l11-.09c.39,2.23.77,4.47,1.28,7.44,2.27,0,4.68,0,7.09,0,5.48,0,6.49,1.19,6.51,7.34s-1,7.41-6.29,7.45c-2.63,0-5.56-.55-5.89,3.43,5.33,4.83,5,6.74-1.8,9C38.89,70,38.8,71.44,38.71,72.91Z"/><path class="cls-5" d="M40.85,196c5.29-6.95,10.79-13.75,15.7-21,1-1.47-.15-4.45-.42-6.72-.32-2.79-.76-5.56-1.15-8.34l2.94.87L61,164q2.52,5.85,5.06,11.7c-.9,3.16-1.37,6.54-2.79,9.44-2.83,5.77-6.18,11.28-9.31,16.9-3.68,3.16-7.07,6.8-11.14,9.35-3.48,2.18-7.76,3.11-11.68,4.6-4.31-.4-5.67-3.32-6-7.08L33.94,203Z"/><path class="cls-4" d="M33.83,78.11c4.64,3.62,5.68,8.44,5.18,14.09-.41,4.61,0,9.29-.1,13.93-.1,6.6-3.35,8.85-9.64,6.76-.83-2.39-2.09-4.73-2.39-7.18-.46-3.77-.25-7.62-.33-11.43,1.48-1.51,4-2.92,4.16-4.56s-2.09-3.42-3-4.73l5.13-1.85L28.36,77Z"/><path class="cls-6" d="M33.94,203l-8.87,5.92C20.73,194,23,180.79,34.81,170c.06,3.7.11,7.41.16,11.11Q34.46,192,33.94,203Z"/><path class="cls-6" d="M33.83,78.11,28.36,77l4.48,6.1L27.71,85c.91,1.31,3.16,3.14,3,4.73s-2.68,3-4.16,4.56c-3.87-2.39-8.54-4.1-5.8-10.46.74-1.71-.34-4.28-.79-6.4-1.26-5.9,2-7,6.79-6.58L35.94,73C35.24,74.7,34.53,76.4,33.83,78.11Z"/><path class="cls-7" d="M53.93,202.06c3.13-5.62,6.48-11.13,9.31-16.9,1.42-2.9,1.89-6.28,2.79-9.44L78,186l14.54,17.67c.77-4.29,1.27-7,1.76-9.78A10.63,10.63,0,0,1,96.43,195c7.41,6.35,14.92,6.68,22.64.55a5.51,5.51,0,0,1,1.84-.57c.34,2.75.87,5.49,1,8.25.24,5.75,2.38,8.89,7.84,10.42a75.46,75.46,0,0,0,7.7,1.32c3.13,5.73,8.13,11.18,9,17.23,2.1,14.68,10.63,24.09,21.78,32.16-1.41,7.56-3.33,14.87-8.73,20.81-.76.84-.7,2.7-.56,4.05.94,9.23,2.5,18.43,2.83,27.68.19,5.31,2.07,8,6.91,9.18,3.73,2.2,6.75,2.14,8.51-2.51.25-.67,1.12-1.11,1.7-1.65-1.73,7.2-2.93,14.6-5.48,21.51-1,2.7-4.73,5-7.73,6.2-3.78,1.48-6,3.31-5.78,7.46q1.47,30.31,3,60.64c.35,7.12.73,14.25,1,21.37a4.66,4.66,0,0,1-.63,2.84c-7,9.06-4,19.46-3.82,29.38.09,5.44.28,10.51-3.84,14.8a5.66,5.66,0,0,0-1,3.95c1.05,12.55,2.48,25.07,3.23,37.63.27,4.4,1.21,8.1,4.19,11.27L55.91,539c6-12.23,12.49-24.21,17.76-36.73a207.32,207.32,0,0,0,16.59-73.85c.42-12.11,4-24.1,6.08-36.15a11.63,11.63,0,0,0-.21-5.87L90.5,393.2c-.57-3.68-1.16-6.8-1.53-9.93-.65-5.59-1.37-11.18-1.65-16.78a11.76,11.76,0,0,1,1.68-6C96.19,348,103.45,335.45,106.43,321a3,3,0,0,0-.47-2.51L86,355.91c-1.91-9.27-3.33-17-5.13-24.7a174.84,174.84,0,0,0-5.08-17.68c-1-2.7-3.42-4.83-4.56-7.5-1.45-3.38-3.23-7.06-3.14-10.57.23-9.08.48-18.35,2.43-27.16,2.78-12.63,1.16-25,.11-37.47-.22-2.57-3-5-4.78-7.34C60.83,216.94,55.23,210.7,53.93,202.06Z"/><path class="cls-8" d="M55.91,539,162,539l1.1.82L163,568.67q-25.41.11-50.82.21L24,569.06l-1-.31-.06-28.88,2-.82c.73.61,1.49,1.78,2.18,1.75C36.73,540.3,46.32,539.63,55.91,539Z"/><path class="cls-9" d="M168.66,326.09c-4.84-1.16-6.72-3.87-6.91-9.18-.33-9.25-1.89-18.45-2.83-27.68-.14-1.35-.2-3.21.56-4.05,5.4-5.94,7.32-13.25,8.73-20.81l15.69-24.56L207,260q-3,5.55-6,11.12c-4.64-.53-5.13,1.35-2.82,4.85.32,1.46.63,2.91.95,4.36-1.48-.74-2.92-1.57-4.43-2.21-3.34-1.4-7.36.6-7.55,4.21s.59,7,.94,10.56Z"/><path class="cls-6" d="M94.8,144.21l9-1.22H110l7.74.86,6.82,3,4.46,4.35,3.11,4.05-.21,3.48.18,5.8-1.21.47-4-2h0l-1.22-1-.78-.81-1.21-1.2c-7.61-3.56-15.39-5.83-23.81-3.05l-2,.07.06,0-2.06,1,.06,0-2.06,1,.06,0-2,1,0,0-1,1,0,0-1,1,0,0-5.87,5-2.23-3.08,0-4.89c.36-1.35.71-2.71,1.06-4.07,1-1.29,1.93-2.59,2.9-3.89l2.22-3.15Z"/><path class="cls-10" d="M137.43,215a75.46,75.46,0,0,1-7.7-1.32c-5.46-1.53-7.6-4.67-7.84-10.42-.11-2.76-.64-5.5-1-8.25.46-1.55,1-3.09,1.39-4.66,1.59-6.14,3.57-12.29-.33-18.34,1.16.38,2.58.47,3.44,1.2a53.69,53.69,0,0,1,4.54,4.86c0,.35,0,.7.05,1.06-2.41,3.84-1.8,7.71-.41,11.76C132.32,198.86,134.83,206.94,137.43,215Z"/><path class="cls-11" d="M163,568.67l.09-28.87c10,2.6,12.2,9.78,11,18.92v13.19l-11.17-2.86Z"/><path class="cls-7" d="M188,292.85c-.35-3.52-1.12-7.06-.94-10.56s4.21-5.61,7.55-4.21c1.51.64,3,1.47,4.43,2.21L204,290c-2.87,3.62-5.47,7.5-8.7,10.75-1.59,1.6-4.33,2-6.55,3C190.84,300,191.77,296.25,188,292.85Z"/><path class="cls-12" d="M188,292.85c3.78,3.4,2.85,7.13.74,10.93q-4.92,9.08-9.86,18.15c-.58.54-1.45,1-1.7,1.65-1.76,4.65-4.78,4.71-8.51,2.51Z"/><path class="cls-10" d="M207,260l-23-20.15c3.27-1.51,5.84-.57,8.44,1.82,6.75,6.25,13.7,12.27,20.57,18.39Z"/><path class="cls-13" d="M132.13,164.53l-.18-5.8c9.6.74,19.38-.62,28.83,1.68,0,.75,0,1.49.05,2.24Z"/><path class="cls-13" d="M85.9,151.05c-1,1.3-1.93,2.6-2.9,3.89-8.55-.87-17.46.91-25.72-2.19l.15-1.7Z"/><path class="cls-13" d="M94.8,144.21l-6.68,3.69-16-13.73,1.19-1.75C81,135.2,87.54,140.44,94.8,144.21Z"/><path class="cls-13" d="M124.59,146.85l-6.82-3L137,130.29l1.52,1.59Z"/><path class="cls-13" d="M132.16,155.25l-3.11-4.05,25.34-6.72.54,1.57C148,150.61,139.89,152.51,132.16,155.25Z"/><path class="cls-4" d="M81.94,159l0,4.89L61,164l-3-3.19Z"/><path class="cls-12" d="M207,260l6,.06c-.29,1.38-.28,2.93-.91,4.13-1.92,3.64-4.09,7.15-6.16,10.72l-4.94-3.79Q203.93,265.52,207,260Z"/><path class="cls-4" d="M110,143H103.8V122.58l1.32-.29Q107.58,132.64,110,143Z"/><path class="cls-7" d="M200.9,271.08l4.94,3.79c.81,1.93,2.06,3.8,2.3,5.8.22,1.76-.68,3.66-1.09,5.5-.54-5.56-4-8.6-9-10.24C195.77,272.43,196.26,270.55,200.9,271.08Z"/><path class="cls-8" d="M198.08,275.93c5,1.64,8.43,4.68,9,10.24L204,290,199,280.29C198.71,278.84,198.4,277.39,198.08,275.93Z"/><path class="cls-2" d="M130,179.11c0-.36,0-.71-.05-1.06q-1.53-7.5-3-15l4,2Q130.46,172,130,179.11Z"/><path class="cls-14" d="M24,569.06l88.21-.18q25.41-.07,50.82-.21l-.07.38q0,50.43,0,100.85c-13.88,2.34-27.68,5.48-41.66,6.86A321.09,321.09,0,0,1,25.65,672a14.48,14.48,0,0,1-1.85-.64Q23.88,620.19,24,569.06Z"/><path class="cls-15" d="M24,569.06q-.08,51.13-.16,102.27c-6.88-1.55-13.81-3-20.62-4.77C2,666.23.86,664.28.37,662.85S.14,659.6.08,658q0-7.49,0-15Q0,620,0,597.09c.09-5.45.47-10.92.18-16.35C0,576.82,1.34,575,5.1,574.31a47.57,47.57,0,0,0,7-2.38L23,568.75Z"/><path class="cls-16" d="M162.93,669.9q0-50.43,0-100.85l11.17,2.86c3.84,1.45,9.43,1.85,11.08,4.61,2,3.33.66,8.65.77,13.11.06,2.49.14,5,.2,7.45-.06,20.31-.32,40.63-.06,60.93.06,5-1.41,7.13-6.2,8C174.18,667,168.58,668.57,162.93,669.9Z"/><path class="cls-17" d="M23,568.75l-10.86,3.18Q12,565.47,11.9,559a7.23,7.23,0,0,0,.13-2c-2.11-9.38,3-14.18,10.89-17.18Z"/><path class="cls-9" d="M33.94,203q.53-11,1-21.95a52.05,52.05,0,0,1,2.89,5.6c1.15,3.05,2,6.21,3,9.32Z"/><path class="cls-18" d="M122,172c3.9,6,1.92,12.2.33,18.34-.41,1.57-.93,3.11-1.39,4.66a5.51,5.51,0,0,0-1.84.57c-7.72,6.13-15.23,5.8-22.64-.55a10.63,10.63,0,0,0-2.16-1.08Q93.61,183,93,172l0,0h.49l.48-.05,14.25-5.59Z"/><path class="cls-10" d="M93,172q.66,11,1.31,21.94c-.49,2.75-1,5.49-1.76,9.78L78,186c5.55-5.23,6.94-11.79,6.15-19.06L90,162c-2.06,4.62-5,9-3.48,15.19Z"/><path class="cls-17" d="M93,172l-6.45,5.22C85,171.05,87.93,166.64,90,162h0l1-1,0,0,1-1,0,0,2-1-.06,0L96,158l-.06,0L98,157l-.06,0,2-.07c8.42-2.78,16.2-.51,23.81,3.05l1.21,1.2.79.81,1.21,1h0q1.51,7.52,3,15a53.69,53.69,0,0,0-4.54-4.86c-.86-.73-2.28-.82-3.44-1.2l-13.82-5.6L93.9,172l-1,.05Z"/><path class="cls-10" d="M94,159l-2,1Z"/><path class="cls-10" d="M96,158l-2.06,1Z"/><path class="cls-10" d="M98,157l-2.06,1Z"/><path class="cls-10" d="M99.9,157l-2,.07Z"/><path class="cls-2" d="M126.92,163l-1.21-1Z"/><path class="cls-10" d="M91,161l-1,1Z"/><path class="cls-2" d="M124.92,161.22l-1.21-1.2Z"/><path class="cls-10" d="M92,160l-1,1Z"/><path class="cls-10" d="M92.93,172l1-.05-.48.05Z"/></g></g></svg>