<svg xmlns="http://www.w3.org/2000/svg" xmlns:xlink="http://www.w3.org/1999/xlink" viewBox="0 0 65 103"><defs><style>.cls-1{fill:none;}.cls-2{fill:#d3896c;}.cls-3{fill:#df9173;}.cls-4{fill:#e9b39e;}.cls-5{fill:#b98f7e;}.cls-6{fill:#b2755d;}.cls-7{fill:#fff;}.cls-8{fill:#2c3e50;}.cls-9{fill:#f0c419;}.cls-10{fill:#c9806b;}.cls-11{clip-path:url(#clip-path);}.cls-12{fill:#ebeded;}.cls-13{fill:#f5d34b;}</style><clipPath id="clip-path"><path class="cls-1" d="M18,71H10a2.08,2.08,0,0,0-2,2.15v24.7A2.08,2.08,0,0,0,10,100h8a2.08,2.08,0,0,0,2-2.15V73.15A2.08,2.08,0,0,0,18,71Zm38,0H48a2.08,2.08,0,0,0-2,2.15v24.7A2.08,2.08,0,0,0,48,100h8a2.08,2.08,0,0,0,2-2.15V73.15A2.07,2.07,0,0,0,56,71Z"/></clipPath></defs><title>piggy-ba nk</title><g id="Layer_2" data-name="Layer 2"><g id="Layer_1-2" data-name="Layer 1"><g id="pig"><path id="Path_494" data-name="Path 494" class="cls-2" d="M18,71H10a2.08,2.08,0,0,0-2,2.15v24.7A2.08,2.08,0,0,0,10,100h8a2.08,2.08,0,0,0,2-2.15V73.15A2.08,2.08,0,0,0,18,71Zm38,0H48a2.08,2.08,0,0,0-2,2.15v24.7A2.08,2.08,0,0,0,48,100h8a2.08,2.08,0,0,0,2-2.15V73.15A2.07,2.07,0,0,0,56,71Z"/><path id="Path_495" data-name="Path 495" class="cls-3" d="M58.79,42.22c2.9-3.69,4.21-9.73,4.21-9.73L49.53,23A57.63,57.63,0,0,0,48,32.78,31.46,31.46,0,0,0,33,29,32.84,32.84,0,0,0,17,33.23,57.91,57.91,0,0,0,15.45,23L2,32.49s1.36,6.32,4.4,10a31.75,31.75,0,0,0-6.4,19C0,79.22,15.08,94,33,94S65,79.24,65,61.5A32.86,32.86,0,0,0,58.79,42.22Z"/><path id="Path_496" data-name="Path 496" class="cls-4" d="M32.5,54C39.4,54,45,58.48,45,64S39.4,74,32.5,74,20,69.52,20,64,25.6,54,32.5,54Z"/><path id="Path_497" data-name="Path 497" class="cls-5" d="M27,60a2,2,0,0,1,2,2v4a2,2,0,0,1-4,0V62A2,2,0,0,1,27,60Zm11,0a2,2,0,0,1,2,2v4a2,2,0,0,1-4,0V62A2,2,0,0,1,38,60Z"/><path id="Path_498" data-name="Path 498" class="cls-6" d="M32.51,84.28h0c-6.86,0-9.44-3.85-9.69-4.26l0,0h0a1.5,1.5,0,0,1,2.58-1.53h0c.06.1,1.86,2.81,7.13,2.81s7.06-2.72,7.14-2.83A1.5,1.5,0,0,1,42.19,80h0c-.3.5-2.77,4.26-9.67,4.27Z"/><path id="Path_499" data-name="Path 499" class="cls-7" d="M20.07,45a4,4,0,1,1-4,4A4,4,0,0,1,20.07,45Z"/><path id="Path_500" data-name="Path 500" class="cls-8" d="M20,47a2,2,0,1,1-2,2A2,2,0,0,1,20,47Z"/><path id="Path_501" data-name="Path 501" class="cls-7" d="M45.07,45a4,4,0,1,1-4,4A4,4,0,0,1,45.07,45Z"/><path id="Path_502" data-name="Path 502" class="cls-8" d="M45,47a2,2,0,1,1-2,2A2,2,0,0,1,45,47Z"/><path id="Path_503" data-name="Path 503" class="cls-9" d="M31,0h3a2.08,2.08,0,0,1,2,2.15v19.7A2.08,2.08,0,0,1,34,24H31a2.09,2.09,0,0,1-2-2.15V2.15A2.08,2.08,0,0,1,31,0Z"/><path id="Path_504" data-name="Path 504" class="cls-10" d="M60.1,33.57l-8.27-5.82s-3,11.66,1.65,13.31S60.1,33.57,60.1,33.57Z"/><g class="cls-11"><g id="Group_20" data-name="Group 20"><path id="Path_505" data-name="Path 505" class="cls-12" d="M49,97a3,3,0,1,0,3,3A3,3,0,0,0,49,97Zm6,0a3,3,0,1,0,3,3A3,3,0,0,0,55,97ZM11,97a3,3,0,1,0,3,3A3,3,0,0,0,11,97Zm6,0a3,3,0,1,0,3,3A3,3,0,0,0,17,97Z"/></g></g><path id="Path_507" data-name="Path 507" class="cls-13" d="M29,15h7v2H29Zm0,4h7v2H29ZM29,3h7V5H29Zm0,8h7v2H29Zm0-4h7V9H29Z"/><path id="Path_508" data-name="Path 508" class="cls-10" d="M11.51,41.06c4.64-1.65,1.65-13.31,1.65-13.31L4.89,33.57S6.87,42.71,11.51,41.06Z"/></g></g></g></svg>