<svg xmlns="http://www.w3.org/2000/svg" xmlns:xlink="http://www.w3.org/1999/xlink" viewBox="0 0 143.89 112.93"><defs><style>.cls-1{fill:none;}.cls-2{fill:#27b999;}.cls-3{fill:#fff;}.cls-4{opacity:0.15;isolation:isolate;}.cls-5{fill:#edf0f1;}.cls-6{clip-path:url(#clip-path);}</style><clipPath id="clip-path" transform="translate(26.89)"><circle class="cls-1" cx="88" cy="29" r="26"/></clipPath></defs><title>retina</title><g id="Layer_2" data-name="Layer 2"><g id="Layer_1-2" data-name="Layer 1"><g id="retina"><path id="Path_545" data-name="Path 545" class="cls-2" d="M50,4A50,50,0,1,1,0,54,50,50,0,0,1,50,4Z" transform="translate(26.89)"/><path id="Path_546" data-name="Path 546" class="cls-3" d="M81.31,43.34,45.44,79.21a1.88,1.88,0,0,1-2.65,0L22.5,58.71a3.41,3.41,0,0,1-.56-1.86,1.89,1.89,0,0,1,.56-1.31l5.4-4.87a1.87,1.87,0,0,1,2.65,0h0L42.79,63.14a1.84,1.84,0,0,0,2.62,0l0,0L73.36,35.31a1.86,1.86,0,0,1,2.63,0l0,0,5.3,5.35a1.91,1.91,0,0,1,0,2.68Z" transform="translate(26.89)"/><circle id="Ellipse_84" data-name="Ellipse 84" class="cls-4" cx="111.52" cy="33" r="26"/><path id="Path_547" data-name="Path 547" class="cls-2" d="M88,56.5A27.5,27.5,0,1,1,115.5,29,27.5,27.5,0,0,1,88,56.5Z" transform="translate(26.89)"/><path id="Path_548" data-name="Path 548" class="cls-5" d="M88,3A26,26,0,1,1,62,29,26,26,0,0,1,88,3m0-3a29,29,0,1,0,29,29A29,29,0,0,0,88,0Z" transform="translate(26.89)"/><g class="cls-6"><g id="Group_22" data-name="Group 22"><path id="Path_549" data-name="Path 549" class="cls-3" d="M107.31,30.59l-81.09,81.1a4.24,4.24,0,0,1-6,0l-12-12.1c-1.64-1.67-4.35-4.39-6-6.06l-27.89-29.3a4.44,4.44,0,0,1-1.25-3.09,4.26,4.26,0,0,1,1.25-3l12.22-11a4.2,4.2,0,0,1,3-1.25,4.22,4.22,0,0,1,3,1.25L20.23,75.37a4.18,4.18,0,0,0,5.92.07.46.46,0,0,0,.07-.07L89.34,12.44a4.21,4.21,0,0,1,6,0l0,0,12,12.1a4.3,4.3,0,0,1,0,6.05Z" transform="translate(26.89)"/></g></g></g></g></g></svg>