<svg xmlns="http://www.w3.org/2000/svg" xmlns:xlink="http://www.w3.org/1999/xlink" viewBox="0 0 123 124.1"><defs><style>.cls-1{fill:none;}.cls-2{fill:#caa52d;}.cls-3{fill:#f0c419;}.cls-4{fill:#f6d759;}.cls-5{fill:#ddc14e;}.cls-6{fill:#c5af47;}.cls-7{clip-path:url(#clip-path);}.cls-8{fill:#dbc04f;}.cls-9{fill:#fff;}</style><clipPath id="clip-path"><ellipse class="cls-1" cx="61.5" cy="62.57" rx="44.5" ry="45"/></clipPath></defs><title>sun</title><g id="Layer_2" data-name="Layer 2"><g id="Layer_1-2" data-name="Layer 1"><g id="weather"><path id="Path_782" data-name="Path 782" class="cls-2" d="M55.74,14.05a47.43,47.43,0,0,1,13.46.17L62.43,0ZM0,61.43l14,6.71a48.15,48.15,0,0,1,.17-13.51ZM23.59,32.56a48.29,48.29,0,0,1,9.6-9.45L18.72,18.17l4.87,14.39Zm76.77.43,5.77-14.82L91.49,23.92A48.78,48.78,0,0,1,100.36,33Zm-8.82,67.14,13.36,4.55-4.58-13.52A48.74,48.74,0,0,1,91.54,100.13Zm-67.95-8.6-4.87,14.39,13.44-5.72a48.51,48.51,0,0,1-8.57-8.67Zm32.15,18.52,6.69,14,6.77-14.22a47.8,47.8,0,0,1-13.46.17Z"/><path id="Path_783" data-name="Path 783" class="cls-2" d="M55.74,14.05a47.43,47.43,0,0,1,13.46.17L62.43,0ZM0,61.43l14,6.71a48.15,48.15,0,0,1,.17-13.51ZM23.59,32.56a48.29,48.29,0,0,1,9.6-9.45L18.72,18.17l4.87,14.39Zm76.77.43,5.77-14.82L91.49,23.92A48.78,48.78,0,0,1,100.36,33Zm-8.82,67.14,13.36,4.55-4.58-13.52A48.74,48.74,0,0,1,91.54,100.13Zm-67.95-8.6-4.87,14.39,13.44-5.72a48.51,48.51,0,0,1-8.57-8.67Zm32.15,18.52,6.69,14,6.77-14.22a47.8,47.8,0,0,1-13.46.17Z"/><path id="Path_784" data-name="Path 784" class="cls-3" d="M40.92,9.09l-.54,9.6a48,48,0,0,1,8-3.13ZM16.12,46.61a48.49,48.49,0,0,1,3.2-7.44l-9.43.59ZM84.76,8.71l-8,7.34a47.53,47.53,0,0,1,8.67,3.83L84.75,8.7ZM10.58,84.55l8.47-.15a49.24,49.24,0,0,1-2.78-6.47Zm31.27,30.88,7.27-6.69a48.29,48.29,0,0,1-7.87-2.91l.6,9.6Zm43.2-1.89.53-9.39a48.3,48.3,0,0,1-7.41,3.43Z"/><path id="Path_785" data-name="Path 785" class="cls-3" d="M40.92,9.09l-.54,9.6a48,48,0,0,1,8-3.13ZM16.12,46.61a48.49,48.49,0,0,1,3.2-7.44l-9.43.59ZM84.76,8.71l-8,7.34a47.53,47.53,0,0,1,8.67,3.83L84.75,8.7ZM10.58,84.55l8.47-.15a49.24,49.24,0,0,1-2.78-6.47Zm31.27,30.88,7.27-6.69a48.29,48.29,0,0,1-7.87-2.91l.6,9.6Zm43.2-1.89.53-9.39a48.3,48.3,0,0,1-7.41,3.43Z"/><path id="Path_786" data-name="Path 786" class="cls-4" d="M61.81,17.37a44.68,44.68,0,1,1-44.5,44.85v-.17A44.59,44.59,0,0,1,61.81,17.37Z"/><path id="Path_787" data-name="Path 787" class="cls-5" d="M66.75,101.76A44.7,44.7,0,0,1,32.92,28.08,44.59,44.59,0,1,0,95.66,91,44.19,44.19,0,0,1,66.75,101.76Z"/><path id="Path_788" data-name="Path 788" class="cls-6" d="M95.66,91a44.37,44.37,0,0,1-62.57-4.68,44.87,44.87,0,0,1-4.34-6l-4.94,5A44.37,44.37,0,0,0,95.66,91Z"/><g class="cls-7"><g id="Group_44" data-name="Group 44"><path id="Path_789" data-name="Path 789" class="cls-8" d="M58.1,50.88,2.47,106.72H106.31V50.88Z"/></g></g><path id="Path_790" data-name="Path 790" class="cls-9" d="M118.16,61.69A19.16,19.16,0,0,0,82.35,48.08,16.09,16.09,0,0,0,58.52,69.61,9.92,9.92,0,0,0,60,89.35h47a16.14,16.14,0,0,0,11.23-27.66Z"/><path id="Path_791" data-name="Path 791" class="cls-9" d="M118.16,61.69A19.16,19.16,0,0,0,82.35,48.08,16.09,16.09,0,0,0,58.52,69.61,9.92,9.92,0,0,0,60,89.35h47a16.14,16.14,0,0,0,11.23-27.66Z"/></g></g></g></svg>