<svg xmlns="http://www.w3.org/2000/svg" xmlns:xlink="http://www.w3.org/1999/xlink" viewBox="0 0 1280.72 334.74"><defs><style>.cls-1{fill:none;}.cls-2{clip-path:url(#clip-path);}.cls-3{clip-path:url(#clip-path-2);}.cls-4{fill:#d65746;}.cls-5{fill:#b24334;}.cls-6{fill:#d9843b;}.cls-7{fill:#e7a03c;}</style><clipPath id="clip-path" transform="translate(0 0)"><rect class="cls-1" width="1280.72" height="334.74"/></clipPath><clipPath id="clip-path-2" transform="translate(0 0)"><rect class="cls-1" width="1280.72" height="334.74"/></clipPath></defs><title>Divider Warm Left</title><g id="Layer_2" data-name="Layer 2"><g id="Layer_1-2" data-name="Layer 1"><g id="Divider_Warm_Left" data-name="Divider Warm Left"><g class="cls-2"><g class="cls-3"><path class="cls-4" d="M286,146.36C51.48,146.36,7.14,69.76,0,27.75v8.09c7.06,55.1,51.47,163.52,286.54,163.52,320,0,993.93-192.73,994.17-192.8V0S606.07,146.36,286,146.36" transform="translate(0 0)"/><path class="cls-5" d="M0,35.84v5.08l.34,76.71,0-16.92C9,150.32,55.74,237.36,284.55,237.36c319.73,0,995-223.66,996.16-224V6.56c-.24.07-674.22,192.8-994.17,192.8C51.48,199.36,7.07,90.94,0,35.84" transform="translate(0 0)"/><path class="cls-6" d="M.38,100.71l0,16.92L.6,171C6.53,181.85,64,275,285.55,275.36c318.46.56,988.67-252.43,995.12-254.87l0-6.13v-1c-1.16.38-676.43,224-996.16,224C55.74,237.36,9,150.32.38,100.71" transform="translate(0 0)"/><path class="cls-7" d="M.6,171,1,254.55c12.25,31.28,66.92,80.19,284.6,80.19,308,0,947.26-275.37,995-296.11l.14-18.14C1274.22,22.93,604,275.92,285.55,275.36,64,275,6.53,181.85.6,171" transform="translate(0 0)"/></g></g></g></g></g></svg>