<svg xmlns="http://www.w3.org/2000/svg" xmlns:xlink="http://www.w3.org/1999/xlink" viewBox="0 0 1280.72 334.74"><defs><style>.cls-1{fill:none;}.cls-2{clip-path:url(#clip-path);}.cls-3{clip-path:url(#clip-path-2);}.cls-4{fill:#499e86;}.cls-5{fill:#5aba9e;}.cls-6{fill:#5597d1;}.cls-7{fill:#4480b4;}</style><clipPath id="clip-path" transform="translate(0 0)"><rect class="cls-1" width="1280.72" height="334.74"/></clipPath><clipPath id="clip-path-2" transform="translate(0 0)"><rect class="cls-1" width="1280.72" height="334.74"/></clipPath></defs><title>Divider Cool Right</title><g id="Layer_2" data-name="Layer 2"><g id="Layer_1-2" data-name="Layer 1"><g id="Divider_Cool_Right" data-name="Divider Cool Right"><g class="cls-2"><g class="cls-3"><path class="cls-4" d="M994.72,146.36c234.52,0,278.86-76.6,286-118.61v8.09c-7.06,55.1-51.47,163.52-286.54,163.52C674.23,199.36.24,6.63,0,6.56V0S674.65,146.36,994.72,146.36" transform="translate(0 0)"/><path class="cls-5" d="M1280.71,35.84v5.08l-.34,76.71,0-16.92c-8.62,49.61-55.35,136.65-284.17,136.65C676.45,237.36,1.17,13.7,0,13.32V6.56c.24.07,674.22,192.8,994.16,192.8,235.07,0,279.48-108.42,286.54-163.52" transform="translate(0 0)"/><path class="cls-6" d="M1280.34,100.71l0,16.92-.24,53.4c-5.93,10.82-63.4,103.94-284.95,104.33C676.71,275.92,6.5,22.93.06,20.49l0-6.13v-1c1.16.38,676.44,224,996.16,224,228.82,0,275.55-87,284.17-136.65" transform="translate(0 0)"/><path class="cls-7" d="M1280.13,171l-.37,83.52c-12.26,31.28-66.92,80.19-284.61,80.19C687.2,334.74,47.9,59.37.19,38.63L.06,20.49C6.5,22.93,676.71,275.92,995.17,275.36c221.55-.39,279-93.51,285-104.33" transform="translate(0 0)"/></g></g></g></g></g></svg>