<?xml version="1.0" encoding="utf-8"?>
<!-- Generator: Adobe Illustrator 24.0.0, SVG Export Plug-In . SVG Version: 6.00 Build 0)  -->
<svg version="1.1" id="Layer_1" xmlns="http://www.w3.org/2000/svg" xmlns:xlink="http://www.w3.org/1999/xlink" x="0px" y="0px"
	 viewBox="0 0 112 111" style="enable-background:new 0 0 112 111;" xml:space="preserve">
<style type="text/css">
	.st0{fill:#818181;}
	.st1{fill-rule:evenodd;clip-rule:evenodd;fill:#7D7D7D;}
	.st2{fill-rule:evenodd;clip-rule:evenodd;fill:#A0A0A0;}
	.st3{fill:#BEBEBE;}
	.st4{opacity:5.000000e-02;fill-rule:evenodd;clip-rule:evenodd;enable-background:new    ;}
	.st5{fill-rule:evenodd;clip-rule:evenodd;fill:#797979;}
	.st6{fill-rule:evenodd;clip-rule:evenodd;fill:#FFFFFF;}
	.st7{fill-rule:evenodd;clip-rule:evenodd;fill:#EFEFEF;}
	.st8{opacity:0.15;fill-rule:evenodd;clip-rule:evenodd;enable-background:new    ;}
	.st9{fill:#454545;}
	.st10{fill:#626262;}
	.st11{fill-rule:evenodd;clip-rule:evenodd;fill:#606060;}
</style>
<circle class="st0" cx="50" cy="61" r="50"/>
<path class="st1" d="M15.5,97.2C6,88.1,0,75.2,0,61c0-27.6,22.4-50,50-50c14.4,0,27.4,6.1,36.5,15.8C86.5,26.8,15.5,97.2,15.5,97.2z
	"/>
<path class="st2" d="M84.5,24.8C94,33.9,100,46.8,100,61c0,13.7-5.5,26.1-14.4,35.1C71.5,82,76.5,86.9,49.2,59.8
	C49.2,59.8,84.5,24.8,84.5,24.8z"/>
<path class="st3" d="M88.1,93.4L55.5,60.8l32.4-32.4c-1.6-1.8-3.2-3.5-5.1-5.1L12.3,93.9c1.6,1.8,3.3,3.5,5.1,5.1l32.4-32.4
	l32.6,32.6C84.4,97.3,86.3,95.4,88.1,93.4z"/>
<path class="st4" d="M104.3,36.3c-6.5,6.5-16.4,7.4-23.9,2.9l-4.2,4.2c10,13.7,8.9,33-3.5,45.4c-13.7,13.7-35.8,13.7-49.5,0
	s-13.7-35.8,0-49.5c12.6-12.6,32.3-13.6,46-3l4.2-4.2c-4.1-7.4-3.1-17,3.2-23.3c7.6-7.6,20-7.6,27.6,0
	C111.9,16.3,111.9,28.7,104.3,36.3z M100.7,12.3c-5.7-5.7-14.8-5.7-20.5,0c-5.7,5.7-5.7,14.8,0,20.5c5.7,5.7,14.8,5.7,20.5,0
	C106.4,27.1,106.4,17.9,100.7,12.3z"/>
<path class="st5" d="M106.3,33.4c-6.5,6.5-16.4,7.4-23.9,2.9l-4.2,4.2c10,13.7,8.9,33-3.5,45.4c-13.7,13.7-35.8,13.7-49.5,0
	s-13.7-35.8,0-49.5c12.6-12.6,32.3-13.6,46-3l4.2-4.2c-4.1-7.4-3.1-17,3.2-23.3c7.6-7.6,20-7.6,27.6,0
	C113.9,13.4,113.9,25.7,106.3,33.4z M102.7,9.3c-5.7-5.7-14.8-5.7-20.5,0c-5.7,5.7-5.7,14.8,0,20.5c5.7,5.7,14.8,5.7,20.5,0
	C108.4,24.2,108.4,15,102.7,9.3z"/>
<circle class="st6" cx="50" cy="61" r="27"/>
<circle class="st7" cx="50.5" cy="43.8" r="2.5"/>
<circle class="st7" cx="50.5" cy="78.8" r="2.5"/>
<circle class="st7" cx="32.5" cy="60.8" r="2.5"/>
<circle class="st7" cx="68.5" cy="60.8" r="2.5"/>
<path class="st8" d="M50,34c-8,0-15.1,3.5-20.1,8.9C34.7,38.6,41.1,36,48,36c14.9,0,27,12.1,27,27c0,6.9-2.6,13.3-6.9,18.1
	C73.6,76.1,77,69,77,61C77,46.1,64.9,34,50,34z"/>
<path class="st9" d="M65.1,44.5L53.3,64.7l-20,11.7C33.3,76.4,65.1,44.5,65.1,44.5z"/>
<path class="st10" d="M33.3,76.4l11.8-20.2l20-11.7C65.1,44.5,33.3,76.4,33.3,76.4z"/>
<path class="st11" d="M78.8,24.6l8,8c2,2,1.4,4.3-0.4,6s-4.1,2.3-6,0.4l-8-8c-2-2-1.4-4.3,0.4-6C74.6,23.2,76.9,22.6,78.8,24.6z"/>
</svg>
